<?xml version="1.0" standalone="no"?>
<!DOCTYPE svg PUBLIC "-//W3C//DTD SVG 20010904//EN"
 "http://www.w3.org/TR/2001/REC-SVG-20010904/DTD/svg10.dtd">
<svg version="1.0" xmlns="http://www.w3.org/2000/svg"
 width="289.000000pt" height="289.000000pt" viewBox="0 0 289.000000 289.000000"
 preserveAspectRatio="xMidYMid meet">
<metadata>
Created by potrace 1.11, written by Peter Selinger 2001-2013
</metadata>
<g transform="translate(0.000000,289.000000) scale(0.100000,-0.100000)"
fill="#000000" stroke="none">
<path d="M0 1646 l0 -1245 48 -7 c101 -16 343 -9 472 14 181 31 268 59 517
166 521 225 619 255 872 276 217 17 559 -15 874 -84 l107 -23 0 1073 0 1074
-1445 0 -1445 0 0 -1244z m1682 1035 c291 -50 556 -188 768 -401 199 -199 333
-442 393 -713 l15 -69 -21 6 c-345 102 -733 100 -1239 -4 -328 -68 -631 -57
-900 31 -165 53 -333 157 -412 254 -48 58 -106 154 -106 174 0 35 138 219 240
322 207 208 476 348 760 399 146 26 354 26 502 1z m-1461 -1081 c152 -113 388
-215 603 -262 87 -19 132 -22 321 -23 236 0 265 4 500 66 456 120 886 150
1139 80 37 -10 70 -21 73 -25 16 -16 -13 -17 -99 -3 -340 56 -675 5 -1134
-173 -617 -239 -1137 -238 -1496 3 l-91 60 7 91 c5 82 17 148 47 259 l10 38
21 -27 c12 -15 56 -53 99 -84z m2582 -239 c66 -21 95 -48 40 -37 -221 45 -452
30 -703 -44 -169 -51 -329 -115 -585 -235 -132 -62 -276 -126 -320 -143 -310
-118 -644 -145 -1041 -86 -126 19 -113 7 -139 128 -9 38 -14 71 -12 73 2 1 29
-6 60 -16 153 -53 425 -88 597 -76 338 21 557 75 940 230 244 99 383 146 546
186 175 43 222 48 394 45 126 -3 168 -7 223 -25z"/>
<path d="M1325 559 c-194 -20 -398 -80 -676 -198 -258 -109 -381 -143 -561
-157 l-88 -7 0 -98 0 -99 1445 0 1445 0 0 170 0 169 -37 10 c-620 167 -1191
245 -1528 210z"/>
</g>
</svg>
